<svg width="400" height="400" viewBox="0 0 400 400" fill="none" xmlns="http://www.w3.org/2000/svg">
<path d="M313.075 121.376C313.075 122.064 309.463 126.88 305.164 132.04C300.864 137.2 287.792 155.775 276.096 173.319C253.221 207.89 240.321 224.917 231.722 232.141C226.39 236.613 226.39 236.785 230.174 236.957C242.213 237.129 249.437 229.733 277.472 188.454C287.62 173.663 296.736 160.935 297.596 160.419C298.456 159.903 306.712 164.719 315.999 171.427C335.435 185.358 353.322 194.646 365.878 197.57C372.93 199.29 377.402 199.29 387.033 197.57C393.569 196.366 399.417 194.646 399.933 193.958C401.137 192.066 386.001 186.562 362.094 179.854C346.099 175.383 302.756 156.291 302.756 153.711C302.756 151.819 323.051 137.544 327.351 136.512C329.931 135.996 331.995 134.62 331.995 133.76C331.995 130.148 321.159 120 317.203 120C314.967 120 313.075 120.516 313.075 121.376Z" fill="black"/>
<path d="M18.1031 134.792C21.543 140.295 25.6709 161.795 25.6709 175.039C25.6709 184.326 25.6709 184.498 18.2751 188.97C-2.53636 201.526 -6.66425 246.933 11.5673 262.756C14.6632 265.68 18.7911 267.916 20.683 267.916C28.7668 267.916 39.7745 242.117 43.3864 215.285C44.5904 207.374 45.9664 200.838 46.4823 200.838C47.1703 200.838 49.4063 202.902 51.8142 205.31C54.0502 207.718 58.35 211.158 61.446 213.05L66.9498 216.489L58.522 228.013C54.0502 234.377 47.5143 242.289 44.0744 245.385C32.0347 257.08 37.8826 256.564 59.382 244.181C66.9498 239.709 75.8936 233.689 79.1615 230.593C85.0093 225.433 85.8693 225.261 96.017 226.121L106.681 227.153V241.601C106.681 258.972 109.433 266.54 117.172 270.668C127.836 276.172 179.951 271.012 187.175 263.788C189.755 261.208 189.755 260.52 186.659 254.844C183.219 248.481 154.667 220.101 144.348 212.878C140.392 209.954 142.456 213.05 151.4 222.853C158.451 230.593 165.675 239.365 167.395 242.289C170.491 247.105 170.491 247.621 167.911 250.545C164.127 254.844 135.404 263.444 124.74 263.616H116.141L115.625 243.665L115.109 223.713L123.88 220.101C133.856 215.973 133.856 212.878 124.052 212.878C120.44 212.878 117.172 212.534 116.656 212.018C115.281 210.642 120.096 172.803 122.676 165.579C124.052 161.795 126.116 158.699 127.492 158.699C131.62 158.527 129.212 153.883 120.44 145.283C112.873 138.06 104.961 134.62 104.961 138.748C104.961 140.467 85.1813 152.851 66.2618 162.827C60.586 165.923 55.2541 169.191 54.3941 170.051C50.4382 173.835 48.2023 171.427 48.2023 163.859C48.2023 156.807 47.3423 154.915 40.1185 147.175C27.3909 133.588 11.3953 124.644 18.1031 134.792ZM108.401 172.803C108.229 180.198 107.541 191.722 106.853 198.258C105.821 210.126 105.821 210.298 101.349 209.438L96.705 208.578L101.177 197.742C105.305 187.766 105.477 186.39 103.069 182.262C101.693 179.854 98.081 176.243 94.9851 174.523C89.6532 171.427 89.4812 171.427 88.4492 174.523C87.7613 176.243 84.6653 183.294 81.5694 190.346L75.7216 203.074L69.3577 202.214C65.7458 201.698 59.21 199.118 54.7381 196.366C48.0303 192.41 46.4823 190.518 46.4823 186.734C46.4823 181.058 49.4063 178.822 67.1218 171.599C80.8814 165.923 107.025 157.667 108.229 158.871C108.573 159.215 108.745 165.407 108.401 172.803ZM27.5628 195.162C26.7029 218.381 20.855 247.277 16.0391 252.78C11.9113 257.252 11.0513 256.736 8.81534 248.309C4.51545 231.109 8.29935 212.878 18.4471 200.838C23.9509 194.474 27.5628 192.238 27.5628 195.162Z" fill="black"/>
<path d="M226.218 166.611C211.426 174.695 204.718 176.759 204.718 173.491C204.718 171.599 196.118 165.923 194.914 166.955C194.57 167.471 196.118 173.835 198.526 181.402C200.934 188.798 204.03 199.118 205.578 204.45C208.33 214.598 216.758 225.777 220.542 224.401C221.746 224.057 222.606 223.025 222.606 222.165C222.434 221.305 221.746 217.521 221.058 213.738C219.854 207.03 220.026 207.03 223.122 209.954C226.734 213.05 231.377 213.738 232.925 211.33C233.441 210.47 238.085 207.374 243.073 204.622C252.017 199.462 264.573 187.938 263.025 186.218C262.509 185.874 259.585 186.046 256.661 186.906C249.609 188.97 248.405 186.906 253.909 181.746C260.961 175.211 261.993 172.287 258.725 167.299C255.629 162.655 247.889 157.667 243.933 158.011C242.729 158.011 234.817 161.967 226.218 166.611ZM244.449 177.103C244.277 177.963 244.277 180.37 244.277 182.606C244.277 185.358 241.353 188.97 233.785 194.818C220.026 205.654 217.962 205.654 216.758 195.162C215.554 185.53 216.07 185.014 230.002 179.166C239.633 175.211 244.621 174.523 244.449 177.103Z" fill="black"/>
<path d="M296.564 187.938C296.736 205.654 297.424 206.686 305.164 200.666C310.323 196.538 311.011 190.174 307.227 181.058C305.164 176.243 300.176 171.599 297.08 171.599C296.564 171.599 296.392 178.994 296.564 187.938Z" fill="black"/>
<path d="M300.176 208.75C287.964 213.05 274.548 217.693 270.592 219.241C263.025 221.821 260.961 225.433 265.949 227.325C270.248 229.045 275.58 228.529 283.664 225.605C293.984 222.165 328.039 212.878 331.135 212.878C332.339 212.878 335.607 212.018 338.187 211.158L342.831 209.266L338.875 205.138C333.027 198.946 326.147 199.634 300.176 208.75Z" fill="black"/>
<path d="M314.623 227.841C312.215 230.593 309.291 234.893 308.259 237.473C305.68 243.493 305.508 266.54 308.087 275.312C309.807 281.676 309.979 281.848 313.075 279.096C319.611 273.248 320.643 265.508 317.375 247.965C314.451 233.001 314.451 231.625 317.203 227.497C320.815 221.821 319.955 221.993 314.623 227.841Z" fill="black"/>
</svg>
